PathFileType	4	(X/Y/Z)	C:/Users/opensim2020/Desktop/walking_exp_matlab/subject01_walking04_static.trc																																																																																																																															
DataRate	CameraRate	NumFrames	NumMarkers	Units	OrigDataRate	OrigDataStartFrame	OrigNumFrames																																																																																																																											
100	100	6	43	mm	100	281	321																																																																																																																											
Frame#	Time	LFHD			RFHD			LBHD			RBHD			C7			T10			CLAV			STRN			RBAK			LSHO			LUPA			LELB			LFRM			LWRA			LWRB			LFIN			RSHO			RUPA			RELB			RFRM			RWRA			RWRB			RFIN			LASI			RASI			LPSI			RPSI			LTHI			LKNE			LTIB			LANK			LHEE			LTOE			RTHI			RKNE			RTIB			RANK			RHEE			RTOE			*39			*40			*41			*42		
		X1	Y1	Z1	X2	Y2	Z2	X3	Y3	Z3	X4	Y4	Z4	X5	Y5	Z5	X6	Y6	Z6	X7	Y7	Z7	X8	Y8	Z8	X9	Y9	Z9	X10	Y10	Z10	X11	Y11	Z11	X12	Y12	Z12	X13	Y13	Z13	X14	Y14	Z14	X15	Y15	Z15	X16	Y16	Z16	X17	Y17	Z17	X18	Y18	Z18	X19	Y19	Z19	X20	Y20	Z20	X21	Y21	Z21	X22	Y22	Z22	X23	Y23	Z23	X24	Y24	Z24	X25	Y25	Z25	X26	Y26	Z26	X27	Y27	Z27	X28	Y28	Z28	X29	Y29	Z29	X30	Y30	Z30	X31	Y31	Z31	X32	Y32	Z32	X33	Y33	Z33	X34	Y34	Z34	X35	Y35	Z35	X36	Y36	Z36	X37	Y37	Z37	X38	Y38	Z38	X39	Y39	Z39	X40	Y40	Z40	X41	Y41	Z41	X42	Y42	Z42	X43	Y43	Z43
																																																																																																																																		
281	2.8	-9.26506	1684.26123	-403.67026	-5.13948	1693.9939	-289.61182	-107.95693	1606.99646	-403.04361	-107.36089	1615.43555	-282.71185	-113.4123	1438.07361	-355.33612	-140.30763	1144.29431	-345.32883	32.55058	1374.60229	-344.8483	80.51447	1219.98865	-344.45392	-166.08746	1242.78455	-276.52609	-19.5904	1397.87646	-509.33105	-41.46126	1220.41284	-603.55255	-52.49132	1072.10767	-625.40942	-1.87338	963.57001	-634.61133	68.44157	851.68915	-587.86926	27.73364	845.28723	-632.08258	79.29726	777.95996	-620.91638	-36.8281	1400.80554	-198.04823	-88.22403	1210.73108	-82.10543	-73.18345	1087.11987	-56.28502	-25.61773	970.14313	-37.48329	42.48256	855.68213	-89.99077	23.13095	857.00189	-35.34545	57.69415	780.3446	-53.25256	44.50117	937.70544	-444.13275	33.44238	941.59955	-226.96942	-146.99422	952.49127	-402.85477	-152.741	957.58203	-260.15421	-6.31635	606.99982	-516.88129	-27.06043	472.68912	-507.33163	-77.48648	293.10428	-530.17151	-84.95605	71.53262	-488.34723	-124.1618	39.25701	-435.87039	64.25125	33.35324	-509.13373	-38.73845	613.29388	-156.89828	-28.83568	456.41031	-172.59721	-74.38695	287.57492	-150.66432	-79.8564	78.48095	-178.81544	-124.8628	35.28373	-227.62776	61.41785	37.15262	-164.17786	-26.64062	1722.45215	-313.56012	3101.98877	1023.7204	1973.07214	3140.70215	1021.81323	2012.51917	NaN	NaN	NaN
282	2.81	-9.08127	1684.25	-403.66986	-4.99475	1693.97412	-289.57947	-107.73949	1607.05505	-403.27972	-107.29353	1615.47363	-282.68185	-113.32107	1438.07764	-355.33221	-140.24913	1144.29236	-345.29114	32.60863	1374.62134	-344.80188	80.58719	1219.98279	-344.42487	-166.00134	1242.79724	-276.44861	-19.5148	1397.8728	-509.30115	-41.36073	1220.40955	-603.50183	-52.42271	1072.08765	-625.32233	-1.83833	963.51886	-634.50122	68.49097	851.65015	-587.70685	27.76924	845.22528	-631.97498	79.32277	777.9483	-620.76172	-36.72845	1400.80493	-198.01448	-88.14135	1210.72375	-82.0777	-73.06744	1087.1051	-56.30896	-25.50717	970.13599	-37.56447	42.59142	855.67023	-90.09837	23.22598	856.9798	-35.4575	57.76786	780.33063	-53.41558	44.54276	937.69287	-444.15448	33.50953	941.61005	-226.94574	-146.91216	952.48029	-402.80777	-152.67921	957.58704	-260.11346	-6.30995	607.00897	-516.85828	-27.05314	472.68167	-507.31427	-77.49621	293.12073	-530.15796	-84.93001	71.52335	-488.35376	-124.15786	39.24488	-435.8623	64.24851	33.31932	-509.14075	-38.71992	613.30566	-156.87967	-28.85633	456.40762	-172.59723	-74.41608	287.57999	-150.64563	-79.85017	78.45326	-178.85875	-124.861	35.36026	-227.58562	61.41551	37.16868	-164.17828	-26.27415	1722.31775	-313.59836	3101.94873	1023.91125	1973.07104	3140.71704	1021.89734	2012.40564	NaN	NaN	NaN
283	2.82	-8.91806	1684.20886	-403.63809	-4.85045	1693.99304	-289.59268	-107.68644	1607.01953	-402.99966	-107.09628	1615.47852	-282.68765	-113.23512	1438.06152	-355.28796	-140.19678	1144.31519	-345.24933	32.68783	1374.62463	-344.76828	80.69421	1220.01379	-344.39554	-165.93559	1242.82373	-276.36707	-19.43399	1397.88904	-509.28394	-41.29558	1220.38696	-603.45105	-52.37007	1072.07043	-625.23553	-1.77582	963.48816	-634.39154	68.5163	851.62189	-587.52631	27.77554	845.19183	-631.82129	79.30779	777.87805	-620.6095	-36.66821	1400.79956	-197.95729	-88.0629	1210.70972	-82.06345	-72.98083	1087.07239	-56.36676	-25.39301	970.11835	-37.61842	42.63288	855.60797	-90.24056	23.32518	856.9433	-35.58821	57.86892	780.2995	-53.50812	44.61033	937.69977	-444.12796	33.61983	941.60382	-226.94145	-146.86154	952.48444	-402.78738	-152.61197	957.62421	-260.10287	-6.30905	606.96533	-516.85034	-27.05239	472.67294	-507.32153	-77.50358	293.10114	-530.15613	-84.97026	71.53831	-488.35666	-124.16568	39.25487	-435.85712	64.24447	33.35073	-509.1384	-38.68906	613.28961	-156.85454	-28.84767	456.43808	-172.59647	-74.39784	287.59198	-150.63652	-79.84956	78.45224	-178.84605	-124.81983	35.25421	-227.63306	61.45539	37.19499	-164.18803	-26.09574	1722.31628	-313.58176	3101.98633	1023.36914	1973.16528	3140.76172	1022.06854	2012.45056	NaN	NaN	NaN
284	2.83	-8.75135	1684.19751	-403.62012	-4.63232	1693.99756	-289.59854	-107.47884	1607.12744	-403.50009	-107.04829	1615.58325	-282.63501	-113.16724	1438.06726	-355.23795	-140.1266	1144.2887	-345.19662	32.74396	1374.62903	-344.7453	80.77969	1220.01453	-344.37927	-165.84624	1242.80371	-276.28836	-19.33862	1397.8938	-509.25562	-41.22011	1220.37415	-603.39105	-52.25108	1072.05493	-625.12018	-1.74283	963.46533	-634.25293	68.57106	851.60052	-587.38068	27.78479	845.18951	-631.74603	79.30508	777.85895	-620.45325	-36.56321	1400.80139	-197.93579	-87.9734	1210.69043	-82.0442	-72.87549	1087.06335	-56.36187	-25.29819	970.06573	-37.69365	42.72015	855.57452	-90.34905	23.41379	856.86389	-35.68155	57.93852	780.2384	-53.60508	44.6807	937.66888	-444.13092	33.69549	941.57568	-226.93504	-146.79488	952.52448	-402.75543	-152.53838	957.66119	-260.02606	-6.28355	606.97748	-516.86084	-27.03727	472.66116	-507.30795	-77.47334	293.09238	-530.14313	-84.95054	71.56736	-488.36267	-124.14536	39.25161	-435.8627	64.25653	33.35792	-509.11093	-38.66972	613.32581	-156.85033	-28.86707	456.41638	-172.56534	-74.40687	287.58179	-150.627	-79.85233	78.44206	-178.83127	-124.82665	35.27167	-227.59193	61.4467	37.16142	-164.17567	-25.90201	1722.32434	-313.63443	3101.96851	1023.51093	1973.15112	3140.8147	1021.92163	2012.53027	NaN	NaN	NaN
285	2.84	-8.57484	1684.18042	-403.62836	-4.51476	1693.97852	-289.61267	-107.47668	1607.08606	-403.21988	-106.84457	1615.61218	-282.65521	-113.11326	1438.05859	-355.18488	-140.04308	1144.29663	-345.1666	32.82626	1374.63403	-344.69067	80.83732	1219.99512	-344.36682	-165.76866	1242.81348	-276.24051	-19.28883	1397.90332	-509.2291	-41.12928	1220.34778	-603.32837	-52.14557	1072.05701	-625.005	-1.67739	963.43286	-634.1709	68.59303	851.54224	-587.22491	27.82048	845.12799	-631.61554	79.32373	777.80182	-620.35083	-36.47565	1400.81274	-197.91541	-87.90793	1210.65906	-82.03265	-72.78355	1087.00684	-56.39315	-25.19652	970.01892	-37.7576	42.82193	855.53943	-90.48571	23.49593	856.84082	-35.79947	57.98274	780.14038	-53.79952	44.74606	937.62292	-444.13318	33.75443	941.54956	-226.89983	-146.70119	952.50262	-402.74362	-152.60448	957.638	-260.09335	-6.2444	606.98712	-516.87292	-27.0157	472.66479	-507.3038	-77.45244	293.08414	-530.15033	-84.95469	71.53702	-488.36905	-124.18203	39.25672	-435.86368	64.25982	33.32113	-509.15665	-38.70113	613.31836	-156.84094	-28.87637	456.43546	-172.52927	-74.43992	287.56775	-150.64023	-79.83974	78.4632	-178.83322	-124.84068	35.25449	-227.5742	61.43533	37.14734	-164.19524	-25.93808	1722.45911	-313.61838	3101.9126	1023.4834	1973.1814	3140.68726	1021.86957	2012.47986	NaN	NaN	NaN
286	2.85	-8.36702	1684.1416	-403.64896	-4.29062	1693.97156	-289.63235	-107.28754	1607.0769	-402.95825	-106.63844	1615.62744	-282.72311	-113.04996	1438.03589	-355.15475	-139.96178	1144.27637	-345.13065	32.87823	1374.64355	-344.66888	80.89398	1220.0022	-344.36542	-165.6666	1242.79553	-276.1857	-19.24805	1397.90137	-509.19299	-41.04466	1220.32031	-603.27704	-51.99493	1071.99194	-625.11243	-1.63832	963.40131	-634.04999	68.64778	851.52283	-587.07123	27.84098	845.08173	-631.49292	79.31066	777.742	-620.18542	-36.40978	1400.797	-197.85399	-87.77222	1210.62195	-81.97938	-72.67751	1086.95654	-56.42545	-25.12465	969.9552	-37.82083	42.8918	855.48578	-90.5934	23.59205	856.78833	-35.88497	58.08339	780.10736	-53.8237	44.82114	937.64594	-444.11417	33.83735	941.52979	-226.88499	-146.6405	952.52722	-402.7399	-152.49269	957.63416	-260.10165	-6.22389	606.96338	-516.84039	-27.01116	472.64182	-507.30585	-77.48674	293.05887	-530.1095	-84.94815	71.54431	-488.3461	-124.15044	39.2282	-435.86627	64.23554	33.31386	-509.12955	-38.68314	613.31067	-156.84183	-28.92344	456.43323	-172.54033	-74.43681	287.57245	-150.60995	-79.86527	78.43984	-178.86052	-124.84077	35.28125	-227.61786	61.43462	37.1678	-164.17824	-25.77401	1722.49426	-313.61423	3102.09692	1023.63953	1973.0647	3140.72827	1022.00592	2012.5072	NaN	NaN	NaN
